<svg version="1.1" width="724" height="561" viewBox="0 0 724 561" xmlns="http://www.w3.org/2000/svg" xmlns:xlink="http://www.w3.org/1999/xlink" overflow="hidden"><defs><linearGradient x1="0" y1="0" x2="1" y2="1" gradientUnits="objectBoundingBox" spreadMethod="pad" id="gradientFill-1"><stop offset="0" stop-color="#CBCED0" stop-opacity="1"/><stop offset="1" stop-color="#84838B" stop-opacity="1"/></linearGradient><linearGradient x1="0" y1="0" x2="1" y2="1" gradientUnits="objectBoundingBox" spreadMethod="pad" id="gradientFill-2"><stop offset="0" stop-color="#276DC3" stop-opacity="1"/><stop offset="1" stop-color="#165CAA" stop-opacity="1"/></linearGradient></defs><path d=" M 361.453 485.937 C 162.329 485.937 0.906 377.828 0.906 244.469 C 0.906 111.109 162.329 3 361.453 3 C 560.578 3 722 111.109 722 244.469 C 722 377.828 560.578 485.937 361.453 485.937 Z M 416.641 97.406 C 265.289 97.406 142.594 171.314 142.594 262.484 C 142.594 353.654 265.289 427.562 416.641 427.562 C 567.992 427.562 679.687 377.033 679.687 262.484 C 679.687 147.971 567.992 97.406 416.641 97.406 Z" fill="url(#gradientFill-1)" fill-rule="evenodd"/><path d=" M 550 377 C 550 377 571.822 383.585 584.5 390 C 588.899 392.226 596.51 396.668 602 402.5 C 607.378 408.212 610 414 610 414 L 696 559 L 557 559.062 L 492 437 C 492 437 478.69 414.131 470.5 407.5 C 463.668 401.969 460.755 400 454 400 C 449.298 400 420.974 400 420.974 400 L 421 558.974 L 298 559.026 L 298 152.938 L 545 152.938 C 545 152.938 657.5 154.967 657.5 262 C 657.5 369.033 550 377 550 377 Z M 496.5 241.024 L 422.037 240.976 L 422 310.026 L 496.5 310.002 C 496.5 310.002 531 309.895 531 274.877 C 531 239.155 496.5 241.024 496.5 241.024 Z" fill="url(#gradientFill-2)" fill-rule="evenodd"/></svg>